<svg width="185" height="52" viewBox="0 0 185 52" fill="none" xmlns="http://www.w3.org/2000/svg">
<circle cx="26" cy="26" r="26" fill="#00B8C4"/>
<path d="M32.7199 35.4849C32.5332 35.6599 32.3116 35.7299 32.1249 35.7182C31.9499 35.7066 31.7749 35.6832 31.5883 35.6482M32.7199 35.4849V35.9849H32.7316H32.8942M32.7199 35.4849L32.7316 35.4973L33.0116 35.796L33.0619 35.8497C33.0615 35.85 33.0612 35.8503 33.0608 35.8507C33.0077 35.9004 32.9519 35.9452 32.8942 35.9849M32.7199 35.4849L32.8942 35.9849M32.8942 35.9849C32.6463 36.1557 32.3624 36.234 32.0937 36.2173L32.0917 36.2171C31.8952 36.204 31.7015 36.1781 31.4997 36.1403M32.8942 35.9849H32.9235L33.0661 35.8565C33.5481 35.4227 33.8032 34.6997 33.8032 33.9916C33.8032 33.7076 33.7606 33.4408 33.6917 33.1927L33.6883 33.1805L33.6843 33.1684C33.6203 32.9765 33.5347 32.7568 33.3972 32.5429L33.3749 32.5082L33.3472 32.4776C32.2479 31.2638 31.2494 29.9329 30.3642 28.5534L32.8942 35.9849ZM31.4997 36.1403C31.5009 36.1406 31.5021 36.1408 31.5033 36.141L31.5883 35.6482M31.4997 36.1403C31.4985 36.1401 31.4973 36.1399 31.4961 36.1397L31.5883 35.6482M31.4997 36.1403C30.0343 35.887 29.2363 35.3194 28.5203 34.8063L28.5198 34.8059C27.777 34.2721 27.1102 33.8032 25.9999 33.8032C24.8897 33.8032 24.2228 34.2721 23.4801 34.8059L23.4795 34.8063L23.457 34.8224C22.7508 35.3287 21.9516 35.9015 20.498 36.1407M31.5883 35.6482C30.2349 35.4149 29.5116 34.9016 28.8116 34.3999L20.5037 36.1397C20.5018 36.14 20.4999 36.1404 20.498 36.1407M20.498 36.1407C20.3013 36.1774 20.1125 36.2029 19.9322 36.2162M20.498 36.1407L19.9322 36.2162M19.9322 36.2162C19.5548 36.2561 19.2097 36.0935 18.9496 35.8497C18.477 35.408 18.2199 34.6919 18.2199 33.9916C18.2199 33.4592 18.3666 32.9331 18.5748 32.5967L18.5982 32.5589L18.6279 32.5258C19.7415 31.2859 20.7638 29.9421 21.6597 28.5523L21.66 28.5518C22.2675 27.612 22.8305 26.6125 23.3254 25.6342L23.3346 25.6161L23.3452 25.5987C23.6562 25.091 24.1238 24.5279 24.7936 24.22C25.4891 23.9003 26.3288 23.8895 27.2903 24.3595C27.8402 24.6208 28.3435 25.1156 28.7674 25.7265L28.7878 25.7559L28.8038 25.788C29.2756 26.7317 29.792 27.6607 30.3641 28.5532L19.9322 36.2162ZM33.9847 32.0635L33.9861 32.0626C34.1632 32.3436 34.299 32.6398 34.3864 32.941C34.4784 33.2577 34.5299 33.6075 34.5299 33.9566C34.5299 34.9346 34.154 35.8296 33.5514 36.3738L33.5511 36.3741C33.1452 36.7414 32.6558 36.9332 32.1716 36.9332H32.1712H32.1708H32.1704H32.1699H32.1695H32.1691H32.1687H32.1683H32.1679H32.1675H32.1671H32.1666H32.1662H32.1658H32.1654H32.165H32.1646H32.1642H32.1637H32.1633H32.1629H32.1625H32.1621H32.1617H32.1612H32.1608H32.1604H32.16H32.1596H32.1592H32.1587H32.1583H32.1579H32.1575H32.1571H32.1567H32.1562H32.1558H32.1554H32.155H32.1546H32.1541H32.1537H32.1533H32.1529H32.1525H32.152H32.1516H32.1512H32.1508H32.1503H32.1499H32.1495H32.1491H32.1487H32.1482H32.1478H32.1474H32.147H32.1465H32.1461H32.1457H32.1453H32.1448H32.1444H32.144H32.1436H32.1431H32.1427H32.1423H32.1419H32.1414H32.141H32.1406H32.1401H32.1397H32.1393H32.1389H32.1384H32.138H32.1376H32.1371H32.1367H32.1363H32.1359H32.1354H32.135H32.1346H32.1341H32.1337H32.1333H32.1329H32.1324H32.132H32.1316H32.1311H32.1307H32.1303H32.1298H32.1294H32.129H32.1285H32.1281H32.1277H32.1272H32.1268H32.1264H32.1259H32.1255H32.1251H32.1247H32.1242H32.1238H32.1233H32.1229H32.1225H32.122H32.1216H32.1212H32.1207H32.1203H32.1199H32.1194H32.119H32.1186H32.1181H32.1177H32.1173H32.1168H32.1164H32.116H32.1155H32.1151H32.1146H32.1142H32.1138H32.1133H32.1129H32.1125H32.112H32.1116H32.1111H32.1107H32.1103H32.1098H32.1094H32.109H32.1085H32.1081H32.1076H32.1072H32.1068H32.1063H32.1059H32.1054H32.105H32.1046H32.1041H32.1037H32.1033H32.1028H32.1024H32.1019H32.1015H32.1011H32.1006H32.1002H32.0997H32.0993H32.0989H32.0984H32.098H32.0975H32.0971H32.0967H32.0962H32.0958H32.0953H32.0949H32.0944H32.094H32.0936H32.0931H32.0927H32.0922H32.0918H32.0914H32.0909H32.0905H32.09H32.0896H32.0891H32.0887H32.0883H32.0878H32.0874H32.0869H32.0865H32.086H32.0856H32.0852H32.0847H32.0843H32.0838H32.0834H32.0829H32.0825H32.0821H32.0816H32.0812H32.0807H32.0803H32.0798H32.0794H32.079H32.0785H32.0781H32.0776H32.0772H32.0767H32.0763H32.0759H32.0754H32.075H32.0745H32.0741H32.0736H32.0732H32.0727H32.0723H32.0719H32.0714H32.071H32.0705H32.0701H32.0696H32.0692H32.0687H32.0683H32.0679H32.0674H32.067H32.0665H32.0661H32.0656H32.0652H32.0647H32.0643H32.0639H32.0634H32.063H32.0625H32.0621H32.0616H32.0612H32.0608H32.0603H32.0599H32.0594H32.059H32.0585H32.0581H32.0576H32.0572H32.0568H32.0563H32.0559H32.0554H32.055H32.0545H32.0541H32.0536H32.0532H32.0528H32.0523H32.0519H32.0514H32.051H32.0505H32.0501H32.0496H32.0492H32.0488H32.0483H32.0479H32.0474H32.047H32.0465H32.0461H32.0457H32.0452H32.0448H32.0443H32.0439H32.0434H32.043H32.0425H32.0421H32.0417H32.0412H32.0408H32.0403H32.0399H32.0394H32.039H32.0386H32.0381H32.0377H32.0372H32.0368H32.0363H32.0359H32.0355H32.035H32.0346H32.0341H32.0337H32.0332H32.0328H32.0324H32.0319H32.0315H32.031H32.0306H32.0301H32.0297H32.0293H32.0288H32.0284H32.0279H32.0275H32.0271H32.0266H32.0262H32.0257H32.0253H32.0249H32.0244H32.024H32.0235H32.0231H32.0226H32.0222H32.0218H32.0213H32.0209H32.0204H32.02H32.0196H32.0191H32.0187H32.0182H32.0178H32.0174H32.0169H32.0165H32.0161H32.0156H32.0152H32.0147H32.0143H32.0139H32.0134H32.013H32.0125H32.0121H32.0117H32.0112H32.0108H32.0104H32.0099H32.0095H32.009H32.0086H32.0082H32.0077H32.0073H32.0069H32.0064H32.006H32.0055H32.0051H32.0047H32.0042H32.0038H32.0034H32.0029H32.0025H32.0021H32.0016H32.0012H32.0008H32.0003H31.9999H31.9995H31.999H31.9986H31.9982H31.9977H31.9973H31.9969H31.9964H31.996H31.9956H31.9951H31.9947H31.9943H31.9938H31.9934H31.993H31.9925H31.9921H31.9917H31.9912H31.9908H31.9904H31.9899H31.9895H31.9891H31.9886H31.9882H31.9878H31.9874H31.9869H31.9865H31.9861H31.9856H31.9852H31.9848H31.9844H31.9839H31.9835H31.9831H31.9826H31.9822H31.9818H31.9814H31.9809H31.9805H31.9801H31.9796H31.9792H31.9788H31.9784H31.9779H31.9775H31.9771H31.9767H31.9762H31.9758H31.9754H31.975H31.9745H31.9741H31.9737H31.9733H31.9729H31.9724H31.972H31.9716H31.9712H31.9707H31.9703H31.9699H31.9695H31.969H31.9686H31.9682H31.9678H31.9674H31.9669H31.9665H31.9661H31.9657H31.9653H31.9648H31.9644H31.964H31.9636C31.7769 36.9226 31.5854 36.8928 31.365 36.858C29.7422 36.5871 28.8522 35.9495 28.0885 35.4023L28.079 35.3955L28.0761 35.3934L28.0727 35.3909C27.44 34.9308 26.8888 34.5299 25.9883 34.5299C25.0877 34.5299 24.5365 34.9308 23.9038 35.3909L23.9004 35.3934L23.8975 35.3955L23.888 35.4024C23.1243 35.9495 22.2343 36.5871 20.6115 36.858C20.4248 36.8874 20.2376 36.9081 20.0456 36.9294C20.0256 36.9316 20.0056 36.9338 19.9855 36.936C19.4514 36.9897 18.8909 36.8009 18.4393 36.3879C17.8433 35.8405 17.4583 34.9423 17.4583 33.9682C17.4583 33.2681 17.6585 32.5964 18.0077 32.0703C19.1571 30.7776 20.1457 29.4821 21.0181 28.1264C21.613 27.2102 22.1583 26.2378 22.6544 25.2573L22.671 25.2245L22.673 25.2185L22.6826 25.2039L22.6878 25.1962L22.6926 25.1883C23.1521 24.4402 23.8228 23.7903 24.6424 23.463C25.4466 23.1418 26.4379 23.1125 27.6023 23.6734C28.25 23.9872 28.8614 24.5343 29.4051 25.3359C29.406 25.3377 29.4072 25.3399 29.4085 25.3427C29.409 25.3436 29.4095 25.3446 29.41 25.3457C29.4162 25.3581 29.4291 25.3841 29.4473 25.4146C29.907 26.3439 30.4141 27.2512 30.9804 28.1361L30.9811 28.1371C31.859 29.5014 32.8554 30.8063 33.947 32.0164L33.9556 32.026L33.9581 32.0285C33.9597 32.0306 33.9634 32.0352 33.969 32.0429C33.9737 32.0493 33.978 32.0554 33.981 32.0597L33.9839 32.0639L33.9839 32.064L33.9847 32.0635Z" stroke="white"/>
<path d="M20.6332 22.2315C21.0299 22.3831 21.4266 22.4648 21.8232 22.4648C22.3249 22.4648 22.8149 22.3365 23.2466 22.0915C24.0049 21.6481 24.5299 20.8548 24.6816 19.8981C24.8216 18.9998 24.6232 18.0431 24.1332 17.2031C23.0832 15.3948 20.9832 14.6365 19.4549 15.5231C17.9266 16.4098 17.5299 18.6031 18.5682 20.4115C19.0582 21.2631 19.7932 21.9048 20.6332 22.2315ZM20.3299 17.0398C20.4932 16.9465 20.6799 16.8998 20.8666 16.8998C21.4849 16.8998 22.1849 17.3548 22.6049 18.0781C22.8966 18.5798 23.0132 19.1398 22.9316 19.6415C22.8966 19.8865 22.7682 20.3415 22.3599 20.5748C21.9516 20.8081 21.4966 20.6915 21.2632 20.5981C20.7966 20.4115 20.3649 20.0265 20.0849 19.5365C19.5366 18.5798 19.6416 17.4365 20.3299 17.0398Z" fill="white"/>
<path d="M28.205 22.0916C28.6366 22.3482 29.1266 22.4649 29.6166 22.4649C30.8533 22.4649 32.1366 21.7066 32.8833 20.4116C33.3733 19.5599 33.56 18.6032 33.4316 17.7166C33.2916 16.7599 32.7666 15.9666 31.9966 15.5232C31.2383 15.0799 30.2816 15.0332 29.3833 15.3832C28.5433 15.7099 27.8083 16.3632 27.3183 17.2032C26.2683 19.0116 26.665 21.2049 28.205 22.0916ZM28.835 18.0782C29.1266 17.5766 29.5583 17.1916 30.0133 17.0166C30.1416 16.9699 30.3516 16.8999 30.5733 16.8999C30.7483 16.8999 30.935 16.9349 31.11 17.0399C31.5183 17.2732 31.6466 17.7282 31.6816 17.9732C31.7633 18.4632 31.635 19.0349 31.355 19.5366C30.8066 20.4932 29.7566 20.9716 29.0683 20.5749C28.38 20.1782 28.275 19.0349 28.8233 18.0782H28.835Z" fill="white"/>
<path d="M36.1616 22.43C35.5316 22.0683 34.75 22.0216 34.015 22.3133C33.3383 22.5816 32.755 23.095 32.3583 23.7716C31.5183 25.23 31.845 27.015 33.105 27.7383C33.4666 27.9483 33.8633 28.0416 34.2716 28.0416C35.275 28.0416 36.3133 27.435 36.92 26.3966C37.76 24.9383 37.4333 23.1533 36.1733 22.43H36.1616ZM35.3916 25.5216C35.0416 26.1283 34.3766 26.455 33.98 26.2216C33.5716 25.9883 33.525 25.2533 33.875 24.6466C34.0616 24.32 34.3533 24.0633 34.6566 23.9466C34.7383 23.9116 34.855 23.8766 34.995 23.8766C35.0883 23.8766 35.1933 23.9 35.2866 23.9466C35.695 24.18 35.7416 24.915 35.3916 25.5216Z" fill="white"/>
<path d="M18.9883 27.7266C20.2366 27.0032 20.575 25.2299 19.735 23.7599C18.895 22.3016 17.18 21.6949 15.9316 22.4182C14.6833 23.1416 14.345 24.9149 15.185 26.3849C15.78 27.4232 16.83 28.0299 17.8216 28.0299C18.23 28.0299 18.6266 27.9366 18.9883 27.7266ZM16.7016 25.5099C16.3516 24.9032 16.3983 24.1682 16.8066 23.9349C16.9 23.8882 16.9933 23.8649 17.11 23.8649C17.495 23.8649 17.95 24.1682 18.23 24.6349C18.58 25.2416 18.5333 25.9766 18.125 26.2099C17.7166 26.4432 17.0633 26.1166 16.7133 25.5099H16.7016Z" fill="white"/>
<!-- phrase -->
<path d="M79.0678 25.432C79.9638 25.592 80.7238 26.064 81.3478 26.848C81.9718 27.632 82.2838 28.52 82.2838 29.512C82.2838 30.36 82.0598 31.128 81.6118 31.816C81.1798 32.488 80.5478 33.024 79.7158 33.424C78.8838 33.808 77.9158 34 76.8118 34H70.1398V17.32H76.4998C77.6358 17.32 78.6118 17.512 79.4278 17.896C80.2438 18.28 80.8598 18.8 81.2758 19.456C81.6918 20.096 81.8998 20.816 81.8998 21.616C81.8998 22.576 81.6438 23.376 81.1318 24.016C80.6198 24.656 79.9318 25.128 79.0678 25.432ZM72.8758 24.328H76.2598C77.1558 24.328 77.8518 24.128 78.3478 23.728C78.8598 23.312 79.1158 22.72 79.1158 21.952C79.1158 21.2 78.8598 20.616 78.3478 20.2C77.8518 19.768 77.1558 19.552 76.2598 19.552H72.8758V24.328ZM76.5718 31.768C77.4998 31.768 78.2278 31.544 78.7558 31.096C79.2838 30.648 79.5478 30.024 79.5478 29.224C79.5478 28.408 79.2678 27.76 78.7078 27.28C78.1478 26.8 77.4038 26.56 76.4758 26.56H72.8758V31.768H76.5718ZM86.649 19.024C86.153 19.024 85.737 18.856 85.401 18.52C85.065 18.184 84.897 17.768 84.897 17.272C84.897 16.776 85.065 16.36 85.401 16.024C85.737 15.688 86.153 15.52 86.649 15.52C87.129 15.52 87.537 15.688 87.873 16.024C88.209 16.36 88.377 16.776 88.377 17.272C88.377 17.768 88.209 18.184 87.873 18.52C87.537 18.856 87.129 19.024 86.649 19.024ZM87.993 20.776V34H85.257V20.776H87.993ZM94.7772 23.008V30.328C94.7772 30.824 94.8892 31.184 95.1132 31.408C95.3532 31.616 95.7532 31.72 96.3132 31.72H97.9932V34H95.8332C94.6012 34 93.6572 33.712 93.0012 33.136C92.3452 32.56 92.0172 31.624 92.0172 30.328V23.008H90.4572V20.776H92.0172V17.488H94.7772V20.776H97.9932V23.008H94.7772ZM102.939 31.768H108.939V34H99.7708V31.768L105.795 23.008H99.7708V20.776H108.939V23.008L102.939 31.768ZM123.932 27.064C123.932 27.56 123.9 28.008 123.836 28.408H113.732C113.812 29.464 114.204 30.312 114.908 30.952C115.612 31.592 116.476 31.912 117.5 31.912C118.972 31.912 120.012 31.296 120.62 30.064H123.572C123.172 31.28 122.444 32.28 121.388 33.064C120.348 33.832 119.052 34.216 117.5 34.216C116.236 34.216 115.1 33.936 114.092 33.376C113.1 32.8 112.316 32 111.74 30.976C111.18 29.936 110.9 28.736 110.9 27.376C110.9 26.016 111.172 24.824 111.716 23.8C112.276 22.76 113.052 21.96 114.044 21.4C115.052 20.84 116.204 20.56 117.5 20.56C118.748 20.56 119.86 20.832 120.836 21.376C121.812 21.92 122.572 22.688 123.116 23.68C123.66 24.656 123.932 25.784 123.932 27.064ZM121.076 26.2C121.06 25.192 120.7 24.384 119.996 23.776C119.292 23.168 118.42 22.864 117.38 22.864C116.436 22.864 115.628 23.168 114.956 23.776C114.284 24.368 113.884 25.176 113.756 26.2H121.076ZM133.296 20.56C134.336 20.56 135.264 20.776 136.08 21.208C136.912 21.64 137.56 22.28 138.024 23.128C138.488 23.976 138.72 25 138.72 26.2V34H136.008V26.608C136.008 25.424 135.712 24.52 135.12 23.896C134.528 23.256 133.72 22.936 132.696 22.936C131.672 22.936 130.856 23.256 130.248 23.896C129.656 24.52 129.36 25.424 129.36 26.608V34H126.624V20.776H129.36V22.288C129.808 21.744 130.376 21.32 131.064 21.016C131.768 20.712 132.512 20.56 133.296 20.56ZM160.109 22.288C160.109 23.136 159.909 23.936 159.509 24.688C159.109 25.44 158.469 26.056 157.589 26.536C156.709 27 155.581 27.232 154.205 27.232H151.181V34H148.445V17.32H154.205C155.485 17.32 156.565 17.544 157.445 17.992C158.341 18.424 159.005 19.016 159.437 19.768C159.885 20.52 160.109 21.36 160.109 22.288ZM154.205 25C155.245 25 156.021 24.768 156.533 24.304C157.045 23.824 157.301 23.152 157.301 22.288C157.301 20.464 156.269 19.552 154.205 19.552H151.181V25H154.205ZM174.838 27.064C174.838 27.56 174.806 28.008 174.742 28.408H164.638C164.718 29.464 165.11 30.312 165.814 30.952C166.518 31.592 167.382 31.912 168.406 31.912C169.878 31.912 170.918 31.296 171.526 30.064H174.478C174.078 31.28 173.35 32.28 172.294 33.064C171.254 33.832 169.958 34.216 168.406 34.216C167.142 34.216 166.006 33.936 164.998 33.376C164.006 32.8 163.222 32 162.646 30.976C162.086 29.936 161.806 28.736 161.806 27.376C161.806 26.016 162.078 24.824 162.622 23.8C163.182 22.76 163.958 21.96 164.95 21.4C165.958 20.84 167.11 20.56 168.406 20.56C169.654 20.56 170.766 20.832 171.742 21.376C172.718 21.92 173.478 22.688 174.022 23.68C174.566 24.656 174.838 25.784 174.838 27.064ZM171.982 26.2C171.966 25.192 171.606 24.384 170.902 23.776C170.198 23.168 169.326 22.864 168.286 22.864C167.342 22.864 166.534 23.168 165.862 23.776C165.19 24.368 164.79 25.176 164.662 26.2H171.982ZM180.722 23.008V30.328C180.722 30.824 180.834 31.184 181.058 31.408C181.298 31.616 181.698 31.72 182.258 31.72H183.938V34H181.778C180.546 34 179.602 33.712 178.946 33.136C178.29 32.56 177.962 31.624 177.962 30.328V23.008H176.402V20.776H177.962V17.488H180.722V20.776H183.938V23.008H180.722Z" fill="#00B8C4"/>
</svg>
